<?xml version="1.0" encoding="UTF-8" standalone="no"?>
<svg width="1024px" height="1024px" viewBox="0 0 1024 1024" version="1.1" xmlns="http://www.w3.org/2000/svg" xmlns:xlink="http://www.w3.org/1999/xlink">
    <title>Content-Censor Icon</title>
    <defs></defs>
    <g id="Page-1" stroke="none" stroke-width="1" fill="none" fill-rule="evenodd">
        <g id="Content-Censor-Icon">
            <rect id="Rectangle-17" fill="#50BFBF" x="0" y="0" width="1024" height="1024" rx="40"></rect>
            <g id="illustration" transform="translate(129.000000, 188.000000)">
                <path d="M582.993893,570.065755 L19.2944391,570.065755 C8.80025539,570.065755 0.293333935,561.558326 0.293333935,551.064649 L0.293333935,19.0337046 C0.293333935,8.53977427 8.80025539,0.0325994593 19.2944391,0.0325994593 L582.993893,0.0325994593 C593.48757,0.0325994593 601.994998,8.53977427 601.994998,19.0337046 L601.994998,551.064649 C601.994998,561.558326 593.48757,570.065755 582.993893,570.065755" id="Fill-7" fill="#FFFFFF"></path>
                <polygon id="Fill-8" fill="#D5EBF8" points="51.8674003 285.049177 248.845524 285.049177 248.845524 376.254482 51.8674003 376.254482"></polygon>
                <path d="M601.994998,44.3685115 L0.293333935,44.3685115 L0.293333935,19.0337046 C0.293333935,8.53977427 8.80050874,0.0325994593 19.2944391,0.0325994593 L582.993893,0.0325994593 C593.48757,0.0325994593 601.994998,8.53977427 601.994998,19.0337046 L601.994998,44.3685115" id="Fill-9" fill="#545F75"></path>
                <path d="M44.629246,22.2005555 C44.629246,27.4476473 40.3757853,31.7011081 35.1286934,31.7011081 C29.8816016,31.7011081 25.6281408,27.4476473 25.6281408,22.2005555 C25.6281408,16.9534636 29.8816016,12.7000029 35.1286934,12.7000029 C40.3757853,12.7000029 44.629246,16.9534636 44.629246,22.2005555" id="Fill-10" fill="#979CA5"></path>
                <path d="M76.2977546,22.2005555 C76.2977546,27.4476473 72.0440405,31.7011081 66.797202,31.7011081 C61.5503635,31.7011081 57.2966494,27.4476473 57.2966494,22.2005555 C57.2966494,16.9534636 61.5503635,12.7000029 66.797202,12.7000029 C72.0440405,12.7000029 76.2977546,16.9534636 76.2977546,22.2005555" id="Fill-11" fill="#979CA5"></path>
                <path d="M107.966263,22.2005555 C107.966263,27.4476473 103.712549,31.7011081 98.4657107,31.7011081 C93.2188721,31.7011081 88.9651581,27.4476473 88.9651581,22.2005555 C88.9651581,16.9534636 93.2188721,12.7000029 98.4657107,12.7000029 C103.712549,12.7000029 107.966263,16.9534636 107.966263,22.2005555" id="Fill-12" fill="#979CA5"></path>
                <polygon id="Fill-13" fill="#ACB3B7" points="487.942764 330.651829 550.692014 330.651829 550.692014 336.985531 487.942764 336.985531"></polygon>
                <polygon id="Fill-14" fill="#E1E6EB" points="490.605452 343.319233 547.441558 343.319233 547.441558 349.652935 490.605452 349.652935"></polygon>
                <polygon id="Fill-15" fill="#E1E6EB" points="487.354996 355.986636 550.104246 355.986636 550.104246 362.320338 487.354996 362.320338"></polygon>
                <polygon id="Fill-16" fill="#E1E6EB" points="497.640928 368.65404 540.406082 368.65404 540.406082 374.987741 497.640928 374.987741"></polygon>
                <path d="M550.692014,286.315917 C550.692014,303.807068 536.514656,317.984426 519.023505,317.984426 C501.532354,317.984426 487.354996,303.807068 487.354996,286.315917 C487.354996,268.824767 501.532354,254.647409 519.023505,254.647409 C536.514656,254.647409 550.692014,268.824767 550.692014,286.315917" id="Fill-17" fill="#D5EBF8"></path>
                <path d="M528.957283,293.105646 C526.423802,295.674595 522.907331,297.268154 519.023505,297.268154 C515.139679,297.268154 511.623208,295.674595 509.089727,293.105646 C501.874374,296.009014 496.923953,301.970295 496.923953,308.856295 C496.923953,308.901898 496.92902,308.9475 496.92902,308.993103 C502.634419,314.554093 510.427405,317.984426 519.023505,317.984426 C527.619605,317.984426 535.412592,314.554093 541.11799,308.993103 C541.11799,308.9475 541.123057,308.901898 541.123057,308.856295 C541.123057,301.970295 536.172636,296.009014 528.957283,293.105646" id="Fill-18" fill="#545F75"></path>
                <path d="M519.023505,272.956874 C513.305439,272.956874 508.671703,277.59061 508.671703,283.308676 C508.671703,289.024208 513.305439,293.660478 519.023505,293.660478 C524.741571,293.660478 529.375307,289.024208 529.375307,283.308676 C529.375307,277.59061 524.741571,272.956874 519.023505,272.956874" id="Fill-19" fill="#545F75"></path>
                <polygon id="Fill-20" fill="#ACB3B7" points="139.001402 82.4903322 463.28693 82.4903322 463.28693 107.825139 139.001402 107.825139"></polygon>
                <polygon id="Fill-21" fill="#E1E6EB" points="168.13643 124.077626 434.151902 124.077626 434.151902 136.74503 168.13643 136.74503"></polygon>
                <path d="M525.357207,393.988847 C525.357207,397.487584 522.522242,400.322548 519.023505,400.322548 C515.524768,400.322548 512.689803,397.487584 512.689803,393.988847 C512.689803,390.49011 515.524768,387.655145 519.023505,387.655145 C522.522242,387.655145 525.357207,390.49011 525.357207,393.988847" id="Fill-22" fill="#545F75"></path>
                <path d="M500.0224,393.988847 C500.0224,397.487584 497.187435,400.322548 493.688698,400.322548 C490.189961,400.322548 487.354996,397.487584 487.354996,393.988847 C487.354996,390.49011 490.189961,387.655145 493.688698,387.655145 C497.187435,387.655145 500.0224,390.49011 500.0224,393.988847" id="Fill-23" fill="#BFDCE8"></path>
                <path d="M550.692014,393.988847 C550.692014,397.487584 547.857049,400.322548 544.358312,400.322548 C540.859575,400.322548 538.02461,397.487584 538.02461,393.988847 C538.02461,390.49011 540.859575,387.655145 544.358312,387.655145 C547.857049,387.655145 550.692014,390.49011 550.692014,393.988847" id="Fill-24" fill="#FF8C71"></path>
                <polygon id="Fill-25" fill="#ACB3B7" points="51.8674003 259.71437 209.622176 259.71437 209.622176 272.381774 51.8674003 272.381774"></polygon>
                <path d="M389.81599,266.048072 C389.81599,269.546809 386.981025,272.381774 383.482288,272.381774 C379.983551,272.381774 377.148586,269.546809 377.148586,266.048072 C377.148586,262.549335 379.983551,259.71437 383.482288,259.71437 C386.981025,259.71437 389.81599,262.549335 389.81599,266.048072" id="Fill-32" fill="#ACB3B7"></path>
                <path d="M364.481183,266.048072 C364.481183,269.546809 361.646218,272.381774 358.147481,272.381774 C354.648744,272.381774 351.81378,269.546809 351.81378,266.048072 C351.81378,262.549335 354.648744,259.71437 358.147481,259.71437 C361.646218,259.71437 364.481183,262.549335 364.481183,266.048072" id="Fill-33" fill="#ACB3B7"></path>
                <path d="M415.150797,266.048072 C415.150797,269.546809 412.315832,272.381774 408.817095,272.381774 C405.318358,272.381774 402.483393,269.546809 402.483393,266.048072 C402.483393,262.549335 405.318358,259.71437 408.817095,259.71437 C412.315832,259.71437 415.150797,262.549335 415.150797,266.048072" id="Fill-34" fill="#ACB3B7"></path>
                <polygon id="Fill-35" fill="#ACB3B7" points="51.8674003 414.256692 229.844419 414.256692 229.844419 426.924096 51.8674003 426.924096"></polygon>
                <polygon id="Fill-36" fill="#D5EBF8" points="274.813701 418.056913 338.4066 418.056913 338.4066 424.390615 274.813701 424.390615"></polygon>
                <polygon id="Fill-37" fill="#E1E6EB" points="51.8674003 452.258903 415.044391 452.258903 415.044391 458.592604 51.8674003 458.592604"></polygon>
                <polygon id="Fill-38" fill="#E1E6EB" points="51.8674003 471.260008 377.465272 471.260008 377.465272 477.593709 51.8674003 477.593709"></polygon>
                <polygon id="Fill-39" fill="#E1E6EB" points="51.8674003 490.261113 415.044391 490.261113 415.044391 496.594815 51.8674003 496.594815"></polygon>
                <polygon id="Fill-40" fill="#E1E6EB" points="51.8674003 509.262218 311.594774 509.262218 311.594774 515.59592 51.8674003 515.59592"></polygon>
                <path d="M410.486659,509.262218 L341.461977,509.262218 C338.885428,509.262218 336.79784,511.349806 336.79784,513.926356 L336.79784,526.089597 C336.79784,528.666147 338.885428,530.753735 341.461977,530.753735 L410.486659,530.753735 C413.063209,530.753735 415.150797,528.666147 415.150797,526.089597 L415.150797,513.926356 C415.150797,511.349806 413.063209,509.262218 410.486659,509.262218" id="Fill-41" fill="#FFDF7B"></path>
                <path d="M389.81599,420.590394 C389.81599,424.089131 386.981025,426.924096 383.482288,426.924096 C379.983551,426.924096 377.148586,424.089131 377.148586,420.590394 C377.148586,417.091657 379.983551,414.256692 383.482288,414.256692 C386.981025,414.256692 389.81599,417.091657 389.81599,420.590394" id="Fill-42" fill="#ACB3B7"></path>
                <path d="M364.481183,420.590394 C364.481183,424.089131 361.646218,426.924096 358.147481,426.924096 C354.648744,426.924096 351.81378,424.089131 351.81378,420.590394 C351.81378,417.091657 354.648744,414.256692 358.147481,414.256692 C361.646218,414.256692 364.481183,417.091657 364.481183,420.590394" id="Fill-43" fill="#ACB3B7"></path>
                <path d="M415.150797,420.590394 C415.150797,424.089131 412.315832,426.924096 408.817095,426.924096 C405.318358,426.924096 402.483393,424.089131 402.483393,420.590394 C402.483393,417.091657 405.318358,414.256692 408.817095,414.256692 C412.315832,414.256692 415.150797,417.091657 415.150797,420.590394" id="Fill-44" fill="#ACB3B7"></path>
                <polyline id="Fill-45" fill="#545F75" points="169.610915 376.254482 191.996751 337.484627 214.380053 376.254482 169.610915 376.254482"></polyline>
                <polyline id="Fill-46" fill="#FF8C71" points="110.585882 376.254482 152.03616 304.460706 193.486437 376.254482 110.585882 376.254482"></polyline>
                <polyline id="Fill-47" fill="#95E5A3" points="85.0281291 376.254482 114.938402 324.449869 144.846142 376.254482 85.0281291 376.254482"></polyline>
                <polygon id="Fill-48" fill="#D5EBF8" points="51.5963179 183.709949 550.692014 183.709949 550.692014 221.71216 51.5963179 221.71216"></polygon>
                <polygon id="Fill-49" fill="#FFFFFF" points="92.1320089 199.544204 130.134219 199.544204 130.134219 205.877905 92.1320089 205.877905"></polygon>
                <polygon id="Fill-50" fill="#FFFFFF" points="155.469026 199.544204 193.471237 199.544204 193.471237 205.877905 155.469026 205.877905"></polygon>
                <polygon id="Fill-51" fill="#FFFFFF" points="218.806043 199.544204 256.808254 199.544204 256.808254 205.877905 218.806043 205.877905"></polygon>
                <polygon id="Fill-52" fill="#FFFFFF" points="282.143061 199.544204 320.145271 199.544204 320.145271 205.877905 282.143061 205.877905"></polygon>
                <polygon id="Fill-53" fill="#FFFFFF" points="345.480078 199.544204 383.482288 199.544204 383.482288 205.877905 345.480078 205.877905"></polygon>
                <polygon id="Fill-54" fill="#FFFFFF" points="408.817095 199.544204 446.819305 199.544204 446.819305 205.877905 408.817095 205.877905"></polygon>
                <polygon id="Fill-55" fill="#FFFFFF" points="472.154112 199.544204 510.156323 199.544204 510.156323 205.877905 472.154112 205.877905"></polygon>
            </g>
            <g id="Glass-Inner" transform="translate(332.000000, 350.000000)">
                <ellipse id="Oval-2" fill="#FFFFFF" cx="150.624899" cy="140.228156" rx="140.228156" ry="140.228156"></ellipse>
                <polygon id="Fill-27" fill-opacity="0.4" fill="#E1E6EB" points="55.9273063 98.2990508 309.275375 98.2990508 309.275375 110.966454 55.9273063 110.966454"></polygon>
                <polygon id="Fill-27" fill-opacity="0.4" fill="#E1E6EB" points="55.9273063 133.766643 151.18618 133.766643 151.18618 146.434046 55.9273063 146.434046"></polygon>
                <polygon id="Fill-27" fill-opacity="0.4" fill="#E1E6EB" points="55.9273063 169.237462 309.275375 169.237462 309.275375 181.904865 55.9273063 181.904865"></polygon>
                <polygon id="Fill-26" fill-opacity="0.4" fill="#D5EBF8" points="39.2781765 48.1361331 71.4533813 48.1361331 71.4533813 60.8035365 39.2781765 60.8035365"></polygon>
                <polygon id="Fill-27" fill-opacity="0.4" fill="#E1E6EB" points="58.2970414 204.70524 171.543628 204.70524 171.543628 217.372643 58.2970414 217.372643"></polygon>
                <path d="M194.598884,203.691847 C191.649686,203.691847 189.260168,207.6293 189.260168,212.488996 L189.260168,235.43039 C189.260168,240.290086 191.649686,244.227538 194.598884,244.227538 L273.606668,244.227538 C276.555866,244.227538 278.945384,240.290086 278.945384,235.43039 L278.945384,212.488996 C278.945384,207.6293 276.555866,203.691847 273.606668,203.691847 L194.598884,203.691847 Z" id="Fill-31" fill-opacity="0.4" fill="#E1E6EB"></path>
                <polygon id="Fill-26" fill-opacity="0.4" fill="#E1E6EB" points="79.054685 48.1361331 124.150641 48.1361331 124.150641 60.8035365 79.054685 60.8035365"></polygon>
                <polygon id="Fill-26" fill-opacity="0.06" fill="#D5EBF8" points="132.762802 48.1361331 164.938006 48.1361331 164.938006 60.8035365 132.762802 60.8035365"></polygon>
                <path d="M214.594975,54.4698348 C214.594975,61.4673085 208.925045,67.1372383 201.927571,67.1372383 C194.930098,67.1372383 189.260168,61.4673085 189.260168,54.4698348 C189.260168,47.4723612 194.930098,41.8024314 201.927571,41.8024314 C208.925045,41.8024314 214.594975,47.4723612 214.594975,54.4698348" id="Fill-33" fill-opacity="0.2" fill="#ACB3B7"></path>
                <path d="M262.47733,54.4698348 C262.47733,61.4673085 256.8074,67.1372383 249.809927,67.1372383 C242.812453,67.1372383 237.142523,61.4673085 237.142523,54.4698348 C237.142523,47.4723612 242.812453,41.8024314 249.809927,41.8024314 C256.8074,41.8024314 262.47733,47.4723612 262.47733,54.4698348" id="Fill-33" fill-opacity="0.2" fill="#ACB3B7"></path>
                <polygon id="Fill-27" fill-opacity="0.4" fill="#E1E6EB" points="212.129387 133.76778 275.973101 133.76778 275.973101 146.435184 212.129387 146.435184"></polygon>
                <rect id="Rectangle-1" fill="#FFFFFF" x="131.931081" y="167.42341" width="40.1529378" height="22.2275192"></rect>
                <polygon id="Fill-8" fill-opacity="0.2" fill="#D5EBF8" points="0.11831389 98.2990508 45.2142702 98.2990508 45.2142702 217.372643 0.11831389 217.372643"></polygon>
            </g>
            <g id="Magnifying-Glass" transform="translate(302.000000, 308.000000)">
                <path d="M581.331362,459.916165 C593.85239,470.256657 595.622496,488.789551 585.284898,501.318578 L571.802442,517.649455 C561.469336,530.160506 542.932644,531.931108 530.411616,521.590616 L328.444331,346.471846 L371.232373,294.648051 L581.331362,459.916165" id="Fill-609" fill="#042F56"></path>
                <path d="M371.65019,294.140239 L369.430818,296.827598 L573.635445,462.994495 C586.156473,473.343975 587.922086,491.876869 577.588981,504.392414 L564.106525,520.718797 C562.107293,523.145509 559.798069,525.158782 557.291168,526.767603 C562.94742,525.230685 568.212811,521.999562 572.233737,517.123667 L585.707208,500.806272 C596.049298,488.281739 594.270207,469.748845 581.749179,459.408353 L371.65019,294.140239" id="Fill-610" fill="#032340"></path>
                <path d="M371.259329,294.6121 C374.228973,297.065776 367.036233,310.673342 355.211567,324.99544 C343.377915,339.326526 331.391512,348.952486 328.421868,346.503304 C325.456716,344.049628 332.635978,330.451049 344.46963,316.124457 C356.298789,301.802359 368.294177,292.167411 371.259329,294.6121" id="Fill-611" fill="#032340"></path>
                <path d="M65.84463,321.094724 C-11.3405228,257.330604 -22.2432968,143.068393 41.5016306,65.8562413 C105.235326,-11.3455748 219.474995,-22.2464575 296.6588,41.512719 C373.842605,105.266952 384.746278,219.543094 321.01348,296.742214 C257.267205,373.956613 143.02529,384.845362 65.84463,321.094724 Z M182.177141,325.359241 C261.204144,325.359241 325.268188,261.277264 325.268188,182.228139 C325.268188,103.179013 261.204144,39.0970359 182.177141,39.0970359 C103.150138,39.0970359 39.0860945,103.179013 39.0860945,182.228139 C39.0860945,261.277264 103.150138,325.359241 182.177141,325.359241 Z" id="Fill-613" fill="#A3A3A3"></path>
                <polyline id="Fill-612" fill="#E9EBB2" points="357.004136 311.882204 342.677061 329.237693 292.808595 288.046494 307.13567 270.691005 357.004136 311.882204"></polyline>
                <path d="M70.8961707,314.974016 C-2.91499845,254.000615 -13.3271746,144.741926 47.6246695,70.91369 C108.575615,-2.91274857 217.79025,-13.3354791 291.604564,47.6365731 C365.4054,108.599188 375.832851,217.85563 314.8855,291.682069 C253.929163,365.508058 144.698804,375.938428 70.8961707,314.974016 Z M93.6438284,287.42184 C35.0533236,239.022406 26.7823466,152.274622 75.1695837,93.6663674 C123.552328,35.0599105 210.272691,26.78527 268.862746,75.1842548 C327.455947,123.580543 335.731417,210.328777 287.35002,268.933886 C238.959638,327.543488 152.234333,335.81678 93.6438284,287.42184 Z" id="Fill-615" fill="#A8A8A8"></path>
            </g>
            <g id="Lock" transform="translate(301.000000, 287.000000)" fill="#D0011B">
                <path d="M229.241088,201.0711 L214.820002,201.0711 L214.820002,142.882157 C214.820002,130.380177 204.631504,120.204313 192.10679,120.204313 L176.777175,120.204313 C164.274093,120.204313 154.100016,130.380177 154.100016,142.882157 L154.100016,201.0711 L139.67893,201.0711 L139.67893,142.882157 C139.67893,122.43681 156.320864,105.80111 176.777175,105.80111 L192.10679,105.80111 C212.584733,105.80111 229.241088,122.43681 229.241088,142.882157 L229.241088,201.0711" id="Fill-63"></path>
                <path d="M196.857369,266.303209 L172.060311,266.303209 L176.602953,235.120273 C171.25994,232.297245 167.553721,226.730407 167.553721,220.248965 C167.553721,210.930093 175.117581,203.368411 184.462445,203.368411 C193.785678,203.368411 201.363959,210.930093 201.363959,220.248965 C201.363959,226.730407 197.643318,232.311648 192.278674,235.120273 L196.857369,266.303209 L196.857369,266.303209 Z M184.455234,172.192677 C148.799098,172.192677 119.920872,201.042293 119.920872,236.63261 C119.920872,272.230127 148.799098,301.101349 184.455234,301.101349 C220.08974,301.101349 248.989597,272.230127 248.989597,236.63261 C248.989597,201.042293 220.08974,172.192677 184.455234,172.192677 L184.455234,172.192677 Z" id="Fill-64"></path>
            </g>
        </g>
    </g>
</svg>